<svg width="1330" height="1724" viewBox="0 0 1330 1724" fill="none"
    xmlns="http://www.w3.org/2000/svg">
    <path
        d="M641.9 711.751C641.9 711.751 796.819 934.634 863.873 1064.42C930.919 1194.2 908.264 1146.15 908.264 1146.15C908.264 1146.15 910.206 1118.87 921.857 1128.71C933.5 1138.56 909.265 1125.02 777.363 886.547C645.453 648.061 664.254 696.547 665.835 697.473C667.408 698.399 602.612 690.413 641.9 711.751Z"
        fill="#39B54A">
        <animateTransform attributeName="transform"
            type="rotate"
            from="0 0 0" to="360 0 0"
            begin="0s" dur="2s"
            repeatCount="indefinite"
        />
    </path>
    <path
        d="M922.809 1172.39C922.809 1172.39 911.737 1126.76 942.393 1160.71C973.033 1194.66 880.329 1087.66 1071.34 1399.09C1071.34 1399.09 1117.29 1484.8 1180.69 1536.88C1244.09 1588.95 1152.02 1542.58 1176.32 1580.6C1200.61 1618.63 1167.13 1603.15 922.809 1172.39Z"
        fill="#39B54A" />
    <path
        d="M649.516 669.031C649.516 669.031 490.247 421.386 478.13 394.005C466.012 366.623 415.547 284.599 407.614 280.851C399.688 277.095 367.971 279.571 382.212 296.867C396.444 314.163 530.258 529.693 549.887 552.34C569.524 574.988 642.976 670.966 619.034 677.311C595.092 683.648 673.262 686.899 649.516 669.031Z"
        fill="#39B54A" />
    <path
        d="M380.789 294.987C380.789 294.987 320.012 282.26 328.961 161.331C337.918 40.41 355.981 309.875 398.22 290.185C440.459 270.503 380.789 294.987 380.789 294.987Z"
        fill="#009444" />
    <path
        d="M401.563 271.772C401.563 271.772 413.877 242.494 469.626 272.563C525.375 302.639 397.176 255.613 402 281.941C406.817 308.276 401.563 271.772 401.563 271.772Z"
        fill="#39B54A" />
    <path
        d="M661.135 670.075C661.135 670.075 675.413 627.121 756.345 663.58C837.271 700.046 653.39 647.609 662.753 684.466C672.123 721.331 661.135 670.075 661.135 670.075Z"
        fill="#006838" />
    <path
        d="M911.572 1155.06C911.572 1155.06 882.437 1164.71 858.261 1103.98C834.079 1043.27 904.339 1168.7 917.969 1148.21C931.6 1127.72 911.572 1155.06 911.572 1155.06Z"
        fill="#8CC63F" />
    <path
        d="M644.706 667.922C644.706 667.922 634.184 635.355 690.61 619.737C747.037 604.112 631.437 657.965 651.503 675.863C671.561 693.753 644.706 667.922 644.706 667.922Z"
        fill="#009444" />
    <path
        d="M377.695 270.27C377.695 270.27 357.306 242.542 402.706 206.084C448.106 169.625 362.439 265.581 386.464 275.433C410.481 285.293 377.695 270.27 377.695 270.27Z"
        fill="#8CC63F" />
    <path
        d="M525.572 917.297C525.572 917.297 683.84 1069.5 757.63 1161.8C831.42 1254.09 805.815 1219.58 805.815 1219.58C805.815 1219.58 803.03 1197.62 813.83 1203.58C824.631 1209.54 803.263 1202.66 660.771 1034.43C518.279 866.214 540.889 901.687 542.288 902.169C543.688 902.658 491.025 906.609 525.572 917.297Z"
        fill="#39B54A" />
    <path
        d="M821.524 1238.08C821.524 1238.08 805.5 1203.64 835.199 1225.71C864.899 1247.78 774.37 1177.61 975.336 1394.31C975.336 1394.31 1025.39 1455.01 1083.94 1486.25C1142.5 1517.5 1062.11 1495.32 1087.41 1521.63C1112.72 1547.93 1083.71 1540.97 821.524 1238.08Z"
        fill="#39B54A" />
    <path
        d="M524.828 882.204C524.828 882.204 359.177 711.058 345.215 691.256C331.253 671.461 278.206 614.418 271.32 612.702C264.433 610.978 239.671 617.985 253.715 629.441C267.752 640.896 408.114 790.614 427.277 805.464C446.439 820.306 519.951 884.778 501.963 893.607C483.982 902.435 546.497 892.598 524.828 882.204Z"
        fill="#39B54A" />
    <path
        d="M262.352 602.682C262.352 602.682 247.502 554.701 150.786 571.048C54.0703 587.388 272.467 581.578 259.8 617.088C247.141 652.591 262.352 602.682 262.352 602.682Z"
        fill="#009444" />
    <path
        d="M265.077 606.46C265.077 606.46 270.195 581.283 319.185 596.284C368.183 611.284 259.033 594.334 267.034 614.453C275.042 634.579 265.077 606.46 265.077 606.46Z"
        fill="#39B54A" />
    <path
        d="M534.209 881.182C534.209 881.182 538.717 844.844 608.699 860.92C678.681 876.989 524.5 864.593 537.784 892.343C551.061 920.094 534.209 881.182 534.209 881.182Z"
        fill="#006838" />
    <path
        d="M809.854 1226.12C809.854 1226.12 788.283 1238.4 759.456 1194.07C730.637 1149.74 806.279 1238.08 813.835 1219.67C821.399 1201.25 809.854 1226.12 809.854 1226.12Z"
        fill="#8CC63F" />
    <path
        d="M520.833 882.086C520.833 882.086 507.316 857.926 549.6 836.573C591.876 815.228 508.731 876.29 527.487 887.302C546.243 898.313 520.833 882.086 520.833 882.086Z"
        fill="#009444" />
    <path
        d="M242.208 602.061C242.208 602.061 218.334 587.738 192.405 627.057C166.469 666.375 237.278 590.132 247.033 608.73C256.787 627.328 242.208 602.061 242.208 602.061Z"
        fill="#8CC63F" />
</svg>