<svg width="255" height="331" viewBox="0 0 255 331" fill="none" xmlns="http://www.w3.org/2000/svg">
<path d="M194.143 246.747C191.154 245.785 178.77 238.108 213.361 231.387C247.949 224.667 233.43 264.025 233.43 264.025C199.695 256.345 172.791 267.865 172.791 267.865C172.791 267.865 135.979 290.703 152.294 295.223C168.61 299.744 206.527 259.705 235.803 270.265C265.078 280.825 253.501 320.663 243.679 320.663C233.858 320.663 243.679 330.741 243.679 330.741C232.149 330.741 235.993 323.541 218.058 300.503C200.122 277.464 163.825 301.463 146.743 308.183C129.662 314.901 118.986 307.221 128.809 299.544C138.63 291.864 157.419 249.147 157.419 249.147L148.025 270.265C148.451 261.625 140.765 249.625 140.765 249.625C156.991 213.149 155.283 172.831 155.283 172.831C167.667 153.632 160.835 142.112 160.835 142.112C151.014 137.793 144.181 122.435 144.181 122.435C151.867 127.233 162.97 121.955 162.97 121.955C156.565 118.115 150.587 100.835 150.587 100.835C162.115 108.515 171.085 107.075 171.085 107.075C168.949 100.835 168.949 87.396 168.949 87.396C168.949 87.396 207.382 124.833 217.63 124.355C227.879 123.875 234.285 124.355 234.285 124.355C234.285 124.355 237.701 134.913 234.285 137.313C230.869 139.713 198.414 151.712 198.414 151.712V164.191C198.414 164.191 219.338 189.631 219.338 229.947" fill="#F7931D"/>
</svg>