<svg width="255" height="331" viewBox="0 0 255 331" fill="none" xmlns="http://www.w3.org/2000/svg">
<path d="M91.3925 103.058C91.3925 103.058 118.837 142.542 130.715 165.534C142.593 188.524 138.579 180.012 138.579 180.012C138.579 180.012 138.923 175.179 140.987 176.922C143.05 178.667 138.757 176.27 115.39 134.023C92.0218 91.7752 95.3525 100.365 95.6325 100.529C95.9112 100.693 84.4325 99.2778 91.3925 103.058Z" fill="#39B54A"/>
<path d="M141.156 184.661C141.156 184.661 139.194 176.577 144.625 182.592C150.053 188.607 133.63 169.651 167.469 224.821C167.469 224.821 175.609 240.005 186.84 249.231C198.07 258.455 181.761 250.24 186.065 256.976C190.368 263.712 184.437 260.971 141.156 184.661Z" fill="#39B54A"/>
<path d="M92.7414 95.4901C92.7414 95.4901 64.5268 51.6195 62.3801 46.7688C60.2334 41.9181 51.2934 27.3875 49.8881 26.7235C48.4841 26.0581 42.8654 26.4968 45.3881 29.5608C47.9094 32.6248 71.6148 70.8061 75.0921 74.8181C78.5708 78.8301 91.5828 95.8328 87.3414 96.9568C83.1001 98.0795 96.9481 98.6555 92.7414 95.4901Z" fill="#39B54A"/>
<path d="M45.136 29.2277C45.136 29.2277 34.3693 26.973 35.9546 5.55036C37.5413 -15.871 40.7413 31.865 48.224 28.377C55.7066 24.8904 45.136 29.2277 45.136 29.2277Z" fill="#009444"/>
<path d="M48.8164 25.1152C48.8164 25.1152 50.9977 19.9285 60.8737 25.2552C70.7497 30.5832 48.0391 22.2525 48.8937 26.9165C49.7471 31.5818 48.8164 25.1152 48.8164 25.1152Z" fill="#39B54A"/>
<path d="M94.8 95.675C94.8 95.675 97.3294 88.0657 111.667 94.5244C126.003 100.984 93.428 91.695 95.0867 98.2244C96.7467 104.755 94.8 95.675 94.8 95.675Z" fill="#006838"/>
<path d="M139.165 181.59C139.165 181.59 134.003 183.3 129.721 172.542C125.437 161.786 137.883 184.006 140.298 180.377C142.713 176.748 139.165 181.59 139.165 181.59Z" fill="#8CC63F"/>
<path d="M91.8893 95.2935C91.8893 95.2935 90.0253 89.5242 100.021 86.7575C110.017 83.9895 89.5386 93.5295 93.0933 96.7002C96.6466 99.8695 91.8893 95.2935 91.8893 95.2935Z" fill="#009444"/>
<path d="M44.5878 24.8489C44.5878 24.8489 40.9758 19.9369 49.0185 13.4783C57.0611 7.01961 41.8851 24.0183 46.1411 25.7636C50.3958 27.5103 44.5878 24.8489 44.5878 24.8489Z" fill="#8CC63F"/>
<path d="M70.7844 139.471C70.7844 139.471 98.8217 166.433 111.894 182.784C124.966 199.135 120.43 193.02 120.43 193.02C120.43 193.02 119.936 189.131 121.85 190.187C123.763 191.243 119.978 190.023 94.735 160.221C69.4924 130.421 73.4977 136.705 73.7457 136.791C73.9937 136.877 64.6644 137.577 70.7844 139.471Z" fill="#39B54A"/>
<path d="M123.213 196.298C123.213 196.298 120.374 190.197 125.635 194.106C130.897 198.015 114.859 185.586 150.461 223.974C150.461 223.974 159.329 234.727 169.701 240.262C180.074 245.797 165.833 241.869 170.315 246.529C174.798 251.187 169.659 249.955 123.213 196.298Z" fill="#39B54A"/>
<path d="M70.6529 133.254C70.6529 133.254 41.3075 102.935 38.8342 99.4272C36.3609 95.9205 26.9635 85.8152 25.7435 85.5112C24.5235 85.2058 20.1369 86.4472 22.6249 88.4765C25.1115 90.5058 49.9769 117.029 53.3715 119.659C56.7662 122.289 69.7889 133.71 66.6022 135.274C63.4169 136.838 74.4915 135.095 70.6529 133.254Z" fill="#39B54A"/>
<path d="M24.1549 83.7362C24.1549 83.7362 21.5242 75.2362 4.3909 78.1322C-12.7424 81.0269 25.9469 79.9976 23.7029 86.2882C21.4602 92.5776 24.1549 83.7362 24.1549 83.7362Z" fill="#009444"/>
<path d="M24.6379 84.4054C24.6379 84.4054 25.5446 79.9454 34.2233 82.6028C42.9033 85.2601 23.5673 82.2574 24.9846 85.8214C26.4033 89.3868 24.6379 84.4054 24.6379 84.4054Z" fill="#39B54A"/>
<path d="M72.3151 133.073C72.3151 133.073 73.1137 126.635 85.5111 129.483C97.9084 132.33 70.5951 130.134 72.9484 135.05C75.3004 139.966 72.3151 133.073 72.3151 133.073Z" fill="#006838"/>
<path d="M121.146 194.178C121.146 194.178 117.324 196.354 112.218 188.501C107.112 180.649 120.512 196.298 121.851 193.036C123.191 189.773 121.146 194.178 121.146 194.178Z" fill="#8CC63F"/>
<path d="M69.9452 133.233C69.9452 133.233 67.5505 128.953 75.0412 125.17C82.5305 121.389 67.8012 132.206 71.1238 134.157C74.4465 136.108 69.9452 133.233 69.9452 133.233Z" fill="#009444"/>
<path d="M20.5864 83.6262C20.5864 83.6262 16.3571 81.0889 11.7638 88.0542C7.16911 95.0196 19.7131 81.5129 21.4411 84.8076C23.1691 88.1022 20.5864 83.6262 20.5864 83.6262Z" fill="#8CC63F"/>
<path d="M194.143 246.747C191.154 245.785 178.77 238.108 213.361 231.387C247.949 224.667 233.43 264.025 233.43 264.025C199.695 256.345 172.791 267.865 172.791 267.865C172.791 267.865 135.979 290.703 152.294 295.223C168.61 299.744 206.527 259.705 235.803 270.265C265.078 280.825 253.501 320.663 243.679 320.663C233.858 320.663 243.679 330.741 243.679 330.741C232.149 330.741 235.993 323.541 218.058 300.503C200.122 277.464 163.825 301.463 146.743 308.183C129.662 314.901 118.986 307.221 128.809 299.544C138.63 291.864 157.419 249.147 157.419 249.147L148.025 270.265C148.451 261.625 140.765 249.625 140.765 249.625C156.991 213.149 155.283 172.831 155.283 172.831C167.667 153.632 160.835 142.112 160.835 142.112C151.014 137.793 144.181 122.435 144.181 122.435C151.867 127.233 162.97 121.955 162.97 121.955C156.565 118.115 150.587 100.835 150.587 100.835C162.115 108.515 171.085 107.075 171.085 107.075C168.949 100.835 168.949 87.396 168.949 87.396C168.949 87.396 207.382 124.833 217.63 124.355C227.879 123.875 234.285 124.355 234.285 124.355C234.285 124.355 237.701 134.913 234.285 137.313C230.869 139.713 198.414 151.712 198.414 151.712V164.191C198.414 164.191 219.338 189.631 219.338 229.947" fill="#F7931D"/>
</svg>
